<svg width="368" height="368" viewBox="0 0 368 368" fill="none" xmlns="http://www.w3.org/2000/svg">
<rect x="62" y="118" width="241" height="184" fill="#343D47"/>
<path d="M184 0C285.62 0 368 82.3796 368 184C368 285.62 285.62 368 184 368C82.3796 368 0 285.62 0 184C0 82.3796 82.3796 0 184 0ZM163.643 178.793C153.643 176.793 142.851 178.928 133.143 181.292C121.47 185.591 116.643 191.793 110.643 203.293C107.643 213.793 107.276 222.347 109.143 233.293C120.323 266.135 160.647 286.724 190.143 300.293C217.293 281.457 227.338 273.256 235.643 265.293C244.555 256.746 260.629 233.082 259.143 221.793C259.143 204.793 250.967 191.392 238.643 183.293C229.941 177.575 218.13 178.506 209.136 180.271C197.019 183.608 194.995 186.739 185.143 195.793C174.643 184.293 170.5 181.373 163.643 178.793Z" fill="#DC8D6D"/>
</svg>
