<svg width="368" height="368" viewBox="0 0 368 368" fill="none" xmlns="http://www.w3.org/2000/svg">
<circle cx="184" cy="184" r="184" fill="#343D47"/>
<path d="M80.7214 184.574C76.4963 199.341 75.9803 211.372 78.6089 226.767C94.3556 272.958 151.146 301.916 192.687 321C230.924 294.509 245.072 282.974 256.768 271.774C269.32 259.754 291.958 226.471 289.864 210.593C289.864 186.683 278.35 167.835 260.993 156.444C248.737 148.402 232.104 149.712 219.436 152.194C202.371 156.886 199.521 161.291 185.645 174.025C170.857 157.851 165.024 153.744 155.365 150.115C141.281 147.302 126.083 150.305 112.41 153.631C95.97 159.678 89.1716 168.399 80.7214 184.574Z" fill="#DC8D6D"/>
</svg>
